:FULLY-SPECIFIED
:FORCE-ALL-JOINTS-BE-3DOF
:DEGREES
453
root 10.7877 17.4541 27.6639 5.29204 0.747581 2.22342
lfemur -18.4085 3.73925 -28.3474
ltibia 25.7663 -0 0
lfoot -12.7974 4.8437 0.000219748
ltoes 0.0471996 -0 0
rfemur -19.6957 -1.89727 17.06
rtibia 64.1383 -0 0
rfoot -9.22462 -8.05899 0.00201177
rtoes -18.9096 0 0
lowerback -5.50727 -1.18386 -2.85664
upperback -1.48356 -1.44347 1.35568
thorax 1.66945 -0.729352 2.89543
lowerneck -21.0609 -4.03136 -11.8046
upperneck 24.3036 -4.74296 10.6683
head 12.0428 -1.87455 5.25681
lclavicle 2.62644e-14 2.22639e-14 0
lhumerus -25.7352 -12.202 89.8351
lradius 21.0204 -0 0
lwrist -4.31247 0 0
lhand -11.2038 -23.4392 0.00211368
lfingers 7.12502 -0 0
lthumb 14.8241 6.00982 0.00188435
rclavicle 2.62644e-14 2.22639e-14 0
rhumerus -45.3602 10.5872 -88.2401
rradius 34.3688 -0 0
rwrist -12.8005 0 0
rhand -30.3739 -31.5379 0.0025307
rfingers 7.12502 -0 0
rthumb -3.67851 -61.4859 0.0024385
454
root 10.7873 17.4459 27.7925 5.27606 0.852177 2.30263
lfemur -17.5501 3.67736 -28.3559
ltibia 25.1222 -0 0
lfoot -12.8784 4.83593 0.000428512
ltoes 0.1148 -0 0
rfemur -20.2367 -1.45272 16.8765
rtibia 63.2148 -0 0
rfoot -9.73163 -8.07025 0.00392393
rtoes -18.4106 0 0
lowerback -5.51875 -1.2847 -2.9289
upperback -1.44713 -1.57279 1.34975
thorax 1.72923 -0.795925 2.9153
lowerneck -21.0987 -3.99053 -11.7559
upperneck 24.3303 -4.7026 10.6799
head 12.0542 -1.84973 5.26152
lclavicle 2.62644e-14 2.22639e-14 0
lhumerus -25.4433 -12.5142 89.7694
lradius 21.3757 -0 0
lwrist -4.04363 0 0
lhand -11.2891 -23.5102 0.00412172
lfingers 7.12502 -0 0
lthumb 14.742 5.94415 0.00367452
rclavicle 2.62644e-14 2.22639e-14 0
rhumerus -45.4898 10.5091 -88.179
rradius 34.4102 -0 0
rwrist -12.9482 0 0
rhand -30.3392 -31.3291 0.00493508
rfingers 7.12502 -0 0
rthumb -3.64504 -61.2775 0.00475528
455
root 10.7868 17.4376 27.921 5.26022 0.956796 2.38181
lfemur -16.6918 3.61562 -28.3653
ltibia 24.478 -0 0
lfoot -12.9595 4.82817 0.00062629
ltoes 0.1824 -0 0
rfemur -20.7791 -1.00992 16.6889
rtibia 62.2913 -0 0
rfoot -10.2386 -8.08154 0.00573632
rtoes -17.9116 0 0
lowerback -5.53012 -1.38555 -3.00114
upperback -1.41068 -1.70209 1.34374
thorax 1.78899 -0.86252 2.9351
lowerneck -21.1365 -3.94967 -11.7073
upperneck 24.3569 -4.66224 10.6916
head 12.0657 -1.82492 5.26624
lclavicle 2.62644e-14 2.22639e-14 0
lhumerus -25.1507 -12.8261 89.7019
lradius 21.731 -0 0
lwrist -3.7748 0 0
lhand -11.3743 -23.5812 0.00602411
lfingers 7.12502 -0 0
lthumb 14.6598 5.87848 0.0053705
rclavicle 2.62644e-14 2.22639e-14 0
rhumerus -45.6194 10.4311 -88.1178
rradius 34.4516 -0 0
rwrist -13.0959 0 0
rhand -30.3045 -31.1202 0.00721311
rfingers 7.12502 -0 0
rthumb -3.61156 -61.0691 0.00695031
456
root 10.7863 17.4294 28.0496 5.24452 1.06144 2.46097
lfemur -15.8335 3.55401 -28.3757
ltibia 23.8339 -0 0
lfoot -13.0405 4.8204 0.000813084
ltoes 0.25 -0 0
rfemur -21.3229 -0.568912 16.4971
rtibia 61.3678 -0 0
rfoot -10.7457 -8.09283 0.00744881
rtoes -17.4126 0 0
lowerback -5.54135 -1.48642 -3.07336
upperback -1.37422 -1.8314 1.33765
thorax 1.84873 -0.929134 2.95483
lowerneck -21.1743 -3.90878 -11.6586
upperneck 24.3836 -4.62188 10.7033
head 12.0772 -1.8001 5.27096
lclavicle 2.62644e-14 2.22639e-14 0
lhumerus -24.8573 -13.1377 89.6328
lradius 22.0863 -0 0
lwrist -3.50596 0 0
lhand -11.4596 -23.6522 0.00782086
lfingers 7.12502 -0 0
lthumb 14.5776 5.81281 0.00697229
rclavicle 2.62644e-14 2.22639e-14 0
rhumerus -45.749 10.3533 -88.0564
rradius 34.493 -0 0
rwrist -13.2436 0 0
rhand -30.2699 -30.9113 0.00936475
rfingers 7.12502 -0 0
rthumb -3.57808 -60.8607 0.00902356
457
root 10.7859 17.4212 28.1782 5.22897 1.1661 2.5401
lfemur -14.9753 3.49258 -28.3869
ltibia 23.1897 -0 0
lfoot -13.1216 4.81264 0.000988891
ltoes 0.3176 -0 0
rfemur -21.8681 -0.129751 16.3011
rtibia 60.4443 -0 0
rfoot -11.2527 -8.10415 0.00906126
rtoes -16.9136 0 0
lowerback -5.55246 -1.5873 -3.14557
upperback -1.33774 -1.9607 1.33148
thorax 1.90845 -0.99577 2.97449
lowerneck -21.2121 -3.86786 -11.6101
upperneck 24.4102 -4.58154 10.7149
head 12.0887 -1.77529 5.27569
lclavicle 2.62644e-14 2.22639e-14 0
lhumerus -24.5632 -13.4489 89.5619
lradius 22.4416 -0 0
lwrist -3.23713 0 0
lhand -11.5449 -23.7232 0.00951195
lfingers 7.12502 -0 0
lthumb 14.4954 5.74714 0.00847989
rclavicle 2.62644e-14 2.22639e-14 0
rhumerus -45.8787 10.2755 -87.9948
rradius 34.5344 -0 0
rwrist -13.3914 0 0
rhand -30.2352 -30.7024 0.01139
rfingers 7.12502 -0 0
rthumb -3.54458 -60.6523 0.010975
458
root 10.7854 17.413 28.3068 5.21356 1.27078 2.61921
lfemur -14.1171 3.43131 -28.3991
ltibia 22.5455 -0 0
lfoot -13.2027 4.80487 0.00115371
ltoes 0.3852 -0 0
rfemur -22.4148 0.307524 16.101
rtibia 59.5208 -0 0
rfoot -11.7597 -8.11547 0.0105735
rtoes -16.4146 0 0
lowerback -5.56344 -1.6882 -3.21776
upperback -1.30124 -2.08999 1.32522
thorax 1.96815 -1.06243 2.99408
lowerneck -21.2498 -3.8269 -11.5615
upperneck 24.4369 -4.54119 10.7266
head 12.1002 -1.75047 5.28043
lclavicle 2.62644e-14 2.22639e-14 0
lhumerus -24.2683 -13.7598 89.4893
lradius 22.7969 -0 0
lwrist -2.9683 0 0
lhand -11.6301 -23.7942 0.0110974
lfingers 7.12502 -0 0
lthumb 14.4132 5.68146 0.00989329
rclavicle 2.62644e-14 2.22639e-14 0
rhumerus -46.0085 10.198 -87.9331
rradius 34.5758 -0 0
rwrist -13.5391 0 0
rhand -30.2005 -30.4936 0.0132888
rfingers 7.12502 -0 0
rthumb -3.51108 -60.4439 0.0128046
